<svg xmlns="http://www.w3.org/2000/svg" viewBox="0 0 1100 740" font-family="-apple-system,Segoe UI,Roboto,Helvetica,Arial,sans-serif">
  <!-- CONCEPTUAL MOCK (hand-drawn from receipt numbers). Final to be GENERATED from
       PHASE2/PHASE7* receipt CSVs per roadmap Phase 4. Internal; R1 not met; unpromoted. -->
  <rect x="0" y="0" width="1100" height="740" fill="#fafbfc"/>

  <!-- header -->
  <text x="40" y="40" font-size="24" font-weight="700" fill="#16263a">Determining-Shadow-Set — a coupled system reveals its <tspan fill="#1f8a8a">hidden cause</tspan> before its <tspan fill="#d98220">parts</tspan></text>
  <text x="40" y="66" font-size="14" fill="#5a6b7b">TOY demonstration · designed coupling · H=8 · <tspan font-weight="600" fill="#5a6b7b">not</tspan> a claim about real AI, NSE, or plant / consciousness fields</text>
  <rect x="958" y="22" width="118" height="24" rx="4" fill="#eef1f4" stroke="#c8d0d8"/>
  <text x="1017" y="38" font-size="11" font-weight="700" fill="#7a8794" text-anchor="middle">CONCEPTUAL MOCK</text>

  <!-- ============ PANEL A : the bracket ============ -->
  <rect x="40" y="92" width="505" height="280" rx="8" fill="#ffffff" stroke="#dde3e9"/>
  <text x="60" y="120" font-size="15" font-weight="700" fill="#16263a">1 · The bracket — read the WHAT before the PARTS</text>

  <!-- gap fill (between func and state) -->
  <polygon points="90,284 160,238 230,194 300,192 370,192 440,193 510,193 510,196 440,247 370,276 300,284 230,297 160,305 90,315"
           fill="#1f8a8a" opacity="0.10"/>
  <!-- 0.70 bar -->
  <line x1="90" y1="260" x2="510" y2="260" stroke="#9aa7b4" stroke-width="1.2" stroke-dasharray="5 4"/>
  <text x="514" y="263" font-size="10" fill="#9aa7b4">0.70 bar</text>
  <!-- axes -->
  <line x1="90" y1="140" x2="90" y2="340" stroke="#c8d0d8" stroke-width="1.2"/>
  <line x1="90" y1="340" x2="510" y2="340" stroke="#c8d0d8" stroke-width="1.2"/>
  <!-- func(u) curve (teal) -->
  <polyline points="90,284 160,238 230,194 300,192 370,192 440,193 510,193" fill="none" stroke="#1f8a8a" stroke-width="3"/>
  <!-- state(z) curve (amber) -->
  <polyline points="90,315 160,305 230,297 300,284 370,276 440,247 510,196" fill="none" stroke="#d98220" stroke-width="3"/>
  <!-- k_func / k_state markers -->
  <circle cx="160" cy="238" r="5" fill="#1f8a8a"/><text x="150" y="226" font-size="11" font-weight="700" fill="#1f8a8a" text-anchor="middle">k_func=2</text>
  <circle cx="440" cy="247" r="5" fill="#d98220"/><text x="452" y="240" font-size="11" font-weight="700" fill="#d98220">k_state=6</text>
  <!-- gap bracket annotation -->
  <line x1="230" y1="194" x2="230" y2="297" stroke="#16263a" stroke-width="1" stroke-dasharray="2 3"/>
  <text x="238" y="250" font-size="11" fill="#16263a">the gap = closure</text>
  <!-- axis labels -->
  <text x="300" y="358" font-size="11" fill="#5a6b7b" text-anchor="middle">shadow-set size  k  →</text>
  <text x="82" y="146" font-size="10" fill="#9aa7b4" text-anchor="end">1.0</text>
  <text x="82" y="344" font-size="10" fill="#9aa7b4" text-anchor="end">0.5</text>
  <!-- curve legend -->
  <text x="60" y="160" font-size="11.5" font-weight="600" fill="#1f8a8a">hidden cause u — locks early</text>
  <text x="320" y="332" font-size="11.5" font-weight="600" fill="#d98220">individual parts z — resist</text>

  <!-- ============ PANEL B : coupling is the switch ============ -->
  <rect x="565" y="92" width="495" height="280" rx="8" fill="#ffffff" stroke="#dde3e9"/>
  <text x="585" y="118" font-size="15" font-weight="700" fill="#16263a">2 · Coupling is the switch</text>
  <text x="691" y="140" font-size="12" font-weight="700" fill="#7a8794" text-anchor="middle">uncoupled (Phase 2)</text>
  <text x="935" y="140" font-size="12" font-weight="700" fill="#1f8a8a" text-anchor="middle">coupled (Phase 7b)</text>

  <!-- mini: uncoupled (enlarged) -->
  <rect x="580" y="148" width="222" height="182" rx="6" fill="#fbfcfd" stroke="#e6ebf0"/>
  <line x1="602" y1="166" x2="602" y2="300" stroke="#d3dae1"/><line x1="602" y1="300" x2="790" y2="300" stroke="#d3dae1"/>
  <line x1="602" y1="232" x2="790" y2="232" stroke="#cbd4dc" stroke-dasharray="4 3"/>
  <polyline points="602,240 649,238 696,239 743,237 790,239" fill="none" stroke="#1f8a8a" stroke-width="3"/>
  <polyline points="602,246 649,245 696,244 743,246 790,245" fill="none" stroke="#d98220" stroke-width="3"/>
  <text x="696" y="322" font-size="11" fill="#8a96a2" text-anchor="middle">no shared cause → no gap</text>

  <!-- mini: coupled (enlarged) -->
  <rect x="822" y="148" width="223" height="182" rx="6" fill="#fbfcfd" stroke="#e6ebf0"/>
  <line x1="844" y1="166" x2="844" y2="300" stroke="#d3dae1"/><line x1="844" y1="300" x2="1033" y2="300" stroke="#d3dae1"/>
  <polygon points="844,272 891,230 938,188 986,176 1033,174 1033,244 986,258 938,268 891,278 844,284" fill="#1f8a8a" opacity="0.10"/>
  <polyline points="844,272 891,230 938,188 986,176 1033,174" fill="none" stroke="#1f8a8a" stroke-width="3"/>
  <polyline points="844,284 891,278 938,268 986,258 1033,244" fill="none" stroke="#d98220" stroke-width="3"/>
  <text x="938" y="322" font-size="11" fill="#8a96a2" text-anchor="middle">shared cause → the gap appears</text>

  <text x="585" y="358" font-size="12" fill="#5a6b7b">A hidden common cause is what makes anything readable — “closure is a coupling phenomenon.”</text>

  <!-- ============ PANEL C : the line ============ -->
  <rect x="40" y="392" width="1020" height="222" rx="8" fill="#ffffff" stroke="#dde3e9"/>
  <text x="60" y="420" font-size="15" font-weight="700" fill="#16263a">3 · The line — the closure survives only a clean-enough readout</text>

  <!-- zones -->
  <rect x="120" y="440" width="480" height="150" fill="#3a9d5d" opacity="0.08"/>
  <rect x="600" y="440" width="120" height="150" fill="#e0a93e" opacity="0.13"/>
  <rect x="720" y="440" width="300" height="150" fill="#d05c5c" opacity="0.09"/>
  <!-- 0.70 bar -->
  <line x1="120" y1="522" x2="1020" y2="522" stroke="#9aa7b4" stroke-width="1.2" stroke-dasharray="5 4"/>
  <text x="1024" y="525" font-size="10" fill="#9aa7b4">0.70 bar</text>
  <!-- axes -->
  <line x1="120" y1="440" x2="120" y2="590" stroke="#c8d0d8" stroke-width="1.2"/>
  <line x1="120" y1="590" x2="1020" y2="590" stroke="#c8d0d8" stroke-width="1.2"/>
  <!-- survival curve -->
  <polyline points="173,467 702,529 967,551" fill="none" stroke="#16263a" stroke-width="3"/>
  <!-- markers -->
  <circle cx="173" cy="467" r="7" fill="#3a9d5d"/><text x="173" y="455" font-size="11.5" font-weight="700" fill="#2f7d4a" text-anchor="middle">survives ✓  3/3</text>
  <circle cx="702" cy="529" r="7" fill="#e0a93e"/><text x="702" y="505" font-size="11.5" font-weight="700" fill="#b07e1e" text-anchor="middle">transition — split  1/3</text>
  <circle cx="967" cy="551" r="7" fill="#d05c5c"/><text x="967" y="575" font-size="11.5" font-weight="700" fill="#b13f3f" text-anchor="middle">washes ✗  0/3</text>
  <!-- x labels -->
  <text x="173" y="606" font-size="11" fill="#5a6b7b" text-anchor="middle">p = 0.10</text>
  <text x="702" y="606" font-size="11" fill="#5a6b7b" text-anchor="middle">p = 0.20</text>
  <text x="967" y="606" font-size="11" fill="#5a6b7b" text-anchor="middle">p = 0.25</text>
  <text x="570" y="608" font-size="11" fill="#8a96a2" text-anchor="middle">coupling noise  →</text>
  <!-- y label -->
  <text x="112" y="450" font-size="10" fill="#9aa7b4" text-anchor="end">read</text>
  <text x="112" y="586" font-size="10" fill="#9aa7b4" text-anchor="end">lost</text>
  <text x="60" y="445" font-size="11" fill="#5a6b7b">hidden-cause recoverability (small shadow set)</text>
  <!-- boundary annotation -->
  <text x="660" y="460" font-size="11" font-weight="700" fill="#b07e1e" text-anchor="middle">boundary zone ≈ p 0.20</text>
  <text x="660" y="475" font-size="9.5" fill="#9a8430" text-anchor="middle">(readout-quality-gated, not a knife-edge)</text>

  <!-- caution strip -->
  <rect x="40" y="632" width="1020" height="44" rx="6" fill="#f4f1ea" stroke="#e4ddcc"/>
  <text x="58" y="652" font-size="11.5" fill="#6b6354"><tspan font-weight="700">Why “allelopathy”?</tspan>  It named the question, not the result — the same abstract shape (read a coupled system from a few of its parts), a different substrate.</text>
  <text x="58" y="668" font-size="11.5" fill="#6b6354">The toy measures <tspan font-weight="600">partial observability</tspan>. It is <tspan font-weight="700">not</tspan> evidence of plant or AI consciousness, fields, hidden collusion, or anything about real LLMs.</text>

  <!-- footer -->
  <text x="40" y="700" font-size="10.5" fill="#9aa7b4">Internal receipt-visual · conceptual mock — final to be generated from PHASE2 / PHASE7* receipt CSVs (roadmap Phase 4) · numbers: Phase 7b seed 0 (bracket), cells 0.10/0.20/0.25 (line)</text>
  <text x="40" y="716" font-size="10.5" fill="#9aa7b4">Tier: toy · H=8 · d_dec≈7.6 · designed coupling · R1 not met · unpromoted · 2026-06-04</text>
</svg>
