<svg xmlns="http://www.w3.org/2000/svg" viewBox="0 0 1200 630" width="1200" height="630">
  <defs>
    <linearGradient id="bg" x1="0" y1="0" x2="1" y2="1">
      <stop offset="0%" stop-color="#FDFDFC"/>
      <stop offset="100%" stop-color="#F5F4EE"/>
    </linearGradient>
    <radialGradient id="halo" cx="0.18" cy="0.12" r="0.6">
      <stop offset="0%" stop-color="#F4C430" stop-opacity="0.12"/>
      <stop offset="100%" stop-color="#F4C430" stop-opacity="0"/>
    </radialGradient>
  </defs>
  <rect width="1200" height="630" fill="url(#bg)"/>
  <rect width="1200" height="630" fill="url(#halo)"/>

  <!-- Top accent rule -->
  <rect x="60" y="60" width="80" height="3" fill="#C99517"/>

  <!-- Eyebrow -->
  <text x="60" y="100" font-family="Verdana, Geneva, sans-serif" font-size="20" font-weight="700" fill="#2A5570" letter-spacing="3">SUNDOG · ALIGNMENT</text>

  <!-- Headline -->
  <text x="60" y="200" font-family="Georgia, 'Times New Roman', serif" font-size="56" font-weight="700" fill="#1A3A52">Route fidelity under</text>
  <text x="60" y="259" font-family="Georgia, 'Times New Roman', serif" font-size="56" font-weight="700" fill="#1A3A52">partial observation.</text>

  <!-- Lede -->
  <text x="60" y="366" font-family="Verdana, Geneva, sans-serif" font-size="22" font-weight="400" fill="#40505C">Bayes turns evidence into belief.</text>
  <text x="60" y="398" font-family="Verdana, Geneva, sans-serif" font-size="22" font-weight="400" fill="#40505C">Sundog turns response into control.</text>

  <!-- URL -->
  <text x="60" y="560" font-family="Courier New, Courier, monospace" font-size="22" font-weight="700" fill="#1A3A52">sundog.cc/alignment</text>

  <!-- Per-page visualization (right side, ~620 to ~1140) -->
  
  <g transform="translate(840,160)">
    <text x="150" y="-15" font-family="Verdana, Geneva, sans-serif" font-size="13" font-weight="700" letter-spacing="2" fill="#6A7680" text-anchor="middle">BAYES · SUNDOG</text>
    <!-- Left panel: posterior heatmap -->
    <rect x="0" y="0" width="140" height="170" rx="6" fill="#FFFFFF" stroke="#CFD8DC" stroke-width="1.5"/>
    <text x="70" y="190" font-family="Verdana, Geneva, sans-serif" font-size="12" fill="#1A3A52" text-anchor="middle">posterior</text>
    <!-- 4x4 heatmap cells: 26x26 each, 4 gap, 14 padding -->
    <rect x="14"  y="14"  width="26" height="26" fill="#1A3A52" opacity="0.20"/>
    <rect x="44"  y="14"  width="26" height="26" fill="#1A3A52" opacity="0.42"/>
    <rect x="74"  y="14"  width="26" height="26" fill="#1A3A52" opacity="0.62"/>
    <rect x="104" y="14"  width="26" height="26" fill="#1A3A52" opacity="0.45"/>
    <rect x="14"  y="44"  width="26" height="26" fill="#1A3A52" opacity="0.30"/>
    <rect x="44"  y="44"  width="26" height="26" fill="#1A3A52" opacity="0.55"/>
    <rect x="74"  y="44"  width="26" height="26" fill="#1A3A52" opacity="0.85"/>
    <rect x="104" y="44"  width="26" height="26" fill="#1A3A52" opacity="0.55"/>
    <rect x="14"  y="74"  width="26" height="26" fill="#1A3A52" opacity="0.18"/>
    <rect x="44"  y="74"  width="26" height="26" fill="#1A3A52" opacity="0.40"/>
    <rect x="74"  y="74"  width="26" height="26" fill="#1A3A52" opacity="0.58"/>
    <rect x="104" y="74"  width="26" height="26" fill="#1A3A52" opacity="0.34"/>
    <rect x="14"  y="104" width="26" height="26" fill="#1A3A52" opacity="0.10"/>
    <rect x="44"  y="104" width="26" height="26" fill="#1A3A52" opacity="0.22"/>
    <rect x="74"  y="104" width="26" height="26" fill="#1A3A52" opacity="0.32"/>
    <rect x="104" y="104" width="26" height="26" fill="#1A3A52" opacity="0.18"/>

    <!-- Right panel: signal trace -->
    <rect x="160" y="0" width="140" height="170" rx="6" fill="#FFFFFF" stroke="#CFD8DC" stroke-width="1.5"/>
    <text x="230" y="190" font-family="Verdana, Geneva, sans-serif" font-size="12" fill="#1A3A52" text-anchor="middle">signal trace</text>
    <line x1="160" y1="50"  x2="300" y2="50"  stroke="#E2E6E9" stroke-width="1"/>
    <line x1="160" y1="90"  x2="300" y2="90"  stroke="#E2E6E9" stroke-width="1"/>
    <line x1="160" y1="130" x2="300" y2="130" stroke="#E2E6E9" stroke-width="1"/>
    <path d="M 160,145 L 175,135 L 190,128 L 205,110 L 220,90 L 235,70 L 250,55 L 265,44 L 280,38 L 300,34"
          fill="none" stroke="#C99517" stroke-width="2.6"/>
    <circle cx="175" cy="135" r="2.5" fill="#C99517"/>
    <circle cx="220" cy="90"  r="2.5" fill="#C99517"/>
    <circle cx="265" cy="44"  r="2.5" fill="#C99517"/>
  </g>


  <!-- Bottom-right mark -->
  <text x="1140" y="600" font-family="Verdana, Geneva, sans-serif" font-size="14" font-weight="700" letter-spacing="2" fill="#9AA4AC" text-anchor="end">sundog.cc</text>
</svg>
