<svg xmlns="http://www.w3.org/2000/svg" viewBox="0 0 1200 630" width="1200" height="630">
  <defs>
    <linearGradient id="bg" x1="0" y1="0" x2="1" y2="1">
      <stop offset="0%" stop-color="#FDFDFC"/>
      <stop offset="100%" stop-color="#F5F4EE"/>
    </linearGradient>
    <radialGradient id="halo" cx="0.18" cy="0.12" r="0.6">
      <stop offset="0%" stop-color="#F4C430" stop-opacity="0.12"/>
      <stop offset="100%" stop-color="#F4C430" stop-opacity="0"/>
    </radialGradient>
  </defs>
  <rect width="1200" height="630" fill="url(#bg)"/>
  <rect width="1200" height="630" fill="url(#halo)"/>

  <!-- Top accent rule -->
  <rect x="60" y="60" width="80" height="3" fill="#C99517"/>

  <!-- Eyebrow -->
  <text x="60" y="100" font-family="Verdana, Geneva, sans-serif" font-size="20" font-weight="700" fill="#2A5570" letter-spacing="3">SUNDOG · THREE-BODY</text>

  <!-- Headline -->
  <text x="60" y="200" font-family="Georgia, 'Times New Roman', serif" font-size="56" font-weight="700" fill="#1A3A52">Local signals survive</text>
  <text x="60" y="259" font-family="Georgia, 'Times New Roman', serif" font-size="56" font-weight="700" fill="#1A3A52">the near-escape pocket.</text>

  <!-- Lede -->
  <text x="60" y="366" font-family="Verdana, Geneva, sans-serif" font-size="22" font-weight="400" fill="#40505C">Indirect signatures in chaotic</text>
  <text x="60" y="398" font-family="Verdana, Geneva, sans-serif" font-size="22" font-weight="400" fill="#40505C">dynamics — not the whole regime,</text>
  <text x="60" y="430" font-family="Verdana, Geneva, sans-serif" font-size="22" font-weight="400" fill="#40505C">but a named operating envelope.</text>

  <!-- URL -->
  <text x="60" y="560" font-family="Courier New, Courier, monospace" font-size="22" font-weight="700" fill="#1A3A52">sundog.cc/threebody</text>

  <!-- Per-page visualization (right side, ~620 to ~1140) -->
  
  <g transform="translate(880,305)">
    <text x="0" y="-225" font-family="Verdana, Geneva, sans-serif" font-size="13" font-weight="700" letter-spacing="2" fill="#6A7680" text-anchor="middle">LOCAL POCKET</text>
    <!-- Orbit 1: tight inner loop -->
    <ellipse cx="-30" cy="-10" rx="85" ry="55" fill="none" stroke="#1A3A52" stroke-width="2" opacity="0.85" transform="rotate(-20)"/>
    <!-- Orbit 2: bigger looping -->
    <path d="M -120,40 C -80,-100 80,-100 120,40 C 80,160 -80,160 -120,40 Z"
          fill="none" stroke="#C99517" stroke-width="2.4" opacity="0.85"/>
    <!-- Orbit 3: escaping spiral -->
    <path d="M 0,0 C 50,-50 130,-30 160,40 C 180,90 170,150 200,200"
          fill="none" stroke="#D45A4A" stroke-width="2" opacity="0.7" stroke-dasharray="4 4"/>
    <!-- Bodies -->
    <circle cx="-100" cy="-30" r="10" fill="#1A3A52"/>
    <circle cx="85"  cy="20"   r="10" fill="#C99517" stroke="#9C7A12" stroke-width="1"/>
    <circle cx="170" cy="100"  r="8"  fill="#D45A4A" stroke="#9C2D21" stroke-width="1"/>
    <!-- escape arrow -->
    <line x1="180" y1="120" x2="220" y2="200" stroke="#D45A4A" stroke-width="1.5" marker-end="url(#arrowred)"/>
  </g>
  <defs>
    <marker id="arrowred" viewBox="0 0 10 10" refX="8" refY="5" markerWidth="5" markerHeight="5" orient="auto">
      <path d="M 0,0 L 10,5 L 0,10 z" fill="#D45A4A"/>
    </marker>
  </defs>


  <!-- Bottom-right mark -->
  <text x="1140" y="600" font-family="Verdana, Geneva, sans-serif" font-size="14" font-weight="700" letter-spacing="2" fill="#9AA4AC" text-anchor="end">sundog.cc</text>
</svg>
